<?xml version="1.0" standalone="no"?>
<!DOCTYPE svg PUBLIC "-//W3C//DTD SVG 20010904//EN"
 "http://www.w3.org/TR/2001/REC-SVG-20010904/DTD/svg10.dtd">
<svg version="1.0" xmlns="http://www.w3.org/2000/svg"
 width="536.000000pt" height="536.000000pt" viewBox="0 0 536.000000 536.000000"
 preserveAspectRatio="xMidYMid meet">

<g transform="translate(0.000000,536.000000) scale(0.100000,-0.100000)"
fill="#000000" stroke="none">
<path d="M125 5346 c-81 -30 -134 -123 -121 -210 12 -72 64 -161 153 -263 117
-134 235 -253 249 -253 7 0 14 -5 16 -10 2 -6 79 66 173 160 93 93 164 170
157 170 -6 0 -12 6 -12 14 0 15 -128 140 -264 259 -141 123 -257 167 -351 133z
m79 -12 c9 -3 16 -11 16 -16 0 -6 -7 -8 -14 -5 -11 4 -13 1 -9 -10 5 -12 2
-15 -10 -10 -12 4 -14 2 -10 -10 5 -12 1 -14 -17 -8 -19 6 -22 4 -16 -10 5
-13 -10 -35 -53 -80 -33 -34 -63 -60 -66 -57 -10 10 -5 80 9 113 29 69 113
115 170 93z m95 -15 c17 -6 31 -18 31 -26 0 -8 5 -11 10 -8 15 10 50 -16 163
-118 l99 -90 -159 -159 -158 -159 -64 68 c-93 98 -150 174 -144 189 3 8 0 14
-6 14 -6 0 -18 15 -27 33 l-16 33 114 116 c62 64 116 116 119 117 3 1 20 -4
38 -10z m389 -322 c18 -18 29 -36 25 -40 -7 -8 -73 51 -73 65 0 16 17 7 48
-25z m-28 -29 l32 -31 -148 -148 -148 -149 -33 32 -33 32 47 48 47 48 23 -22
c13 -12 25 -19 28 -16 3 2 -4 13 -15 23 -11 10 -20 21 -20 25 0 4 24 33 54 66
l55 59 25 -24 c14 -14 28 -22 31 -19 3 2 -4 13 -15 23 -11 10 -20 22 -20 26 0
10 43 59 52 59 3 0 21 -14 38 -32z"/>
<path d="M300 5260 c0 -5 5 -10 10 -10 6 0 10 5 10 10 0 6 -4 10 -10 10 -5 0
-10 -4 -10 -10z"/>
<path d="M270 5224 c0 -8 5 -12 10 -9 6 3 10 10 10 16 0 5 -4 9 -10 9 -5 0
-10 -7 -10 -16z"/>
<path d="M230 5190 c0 -5 5 -10 10 -10 6 0 10 5 10 10 0 6 -4 10 -10 10 -5 0
-10 -4 -10 -10z"/>
<path d="M195 5159 c-10 -15 3 -25 16 -12 7 7 7 13 1 17 -6 3 -14 1 -17 -5z"/>
<path d="M160 5114 c0 -8 5 -12 10 -9 6 3 10 10 10 16 0 5 -4 9 -10 9 -5 0
-10 -7 -10 -16z"/>
<path d="M120 5080 c0 -5 5 -10 10 -10 6 0 10 5 10 10 0 6 -4 10 -10 10 -5 0
-10 -4 -10 -10z"/>
<path d="M90 5050 c0 -5 5 -10 10 -10 6 0 10 5 10 10 0 6 -4 10 -10 10 -5 0
-10 -4 -10 -10z"/>
<path d="M870 4828 c41 -39 161 -157 266 -261 l192 -189 25 34 c56 75 57 72
-25 151 -41 40 -102 87 -136 105 -33 18 -95 62 -137 97 -88 75 -87 74 -185
109 l-75 27 75 -73z m176 -78 c37 -33 95 -73 129 -90 38 -19 87 -57 133 -103
l72 -73 -34 -33 -34 -33 -216 212 c-119 117 -216 217 -216 222 0 18 101 -44
166 -102z"/>
<path d="M820 4762 c1 -14 28 -43 34 -34 3 4 -4 16 -15 25 -10 9 -19 13 -19 9z"/>
<path d="M649 4706 c-11 -22 -5 -32 63 -113 41 -48 101 -122 133 -163 33 -41
95 -117 138 -168 l79 -94 -48 -49 c-27 -27 -51 -49 -55 -49 -3 0 -117 111
-253 248 l-246 247 26 -65 c39 -98 49 -113 115 -187 33 -37 76 -97 94 -133 32
-63 139 -190 174 -210 13 -7 30 1 71 32 47 36 55 38 65 24 10 -14 15 -12 41
15 24 25 26 31 14 39 -21 13 -25 13 -45 -10 -18 -20 -45 -27 -45 -11 0 15 108
111 126 111 13 0 14 -3 5 -14 -7 -8 -8 -22 -3 -35 7 -21 9 -20 40 12 33 34 33
34 11 40 l-23 6 24 26 c23 24 25 25 37 9 12 -17 15 -16 43 11 30 29 30 30 9
37 -11 5 -25 6 -30 2 -5 -3 -9 2 -9 11 0 9 21 39 47 68 l47 52 -46 -44 -47
-44 -43 37 c-24 21 -99 83 -167 139 -69 56 -163 135 -210 175 -46 39 -93 72
-103 72 -10 0 -23 -11 -29 -24z m143 -86 c55 -49 131 -110 167 -134 72 -50
219 -176 220 -190 1 -11 -91 -105 -104 -106 -14 0 -144 153 -193 226 -22 32
-81 106 -130 164 -50 58 -91 111 -92 118 0 29 37 7 132 -78z m-57 -356 l208
-215 -31 -32 -32 -32 -70 70 c-45 44 -81 92 -101 133 -18 35 -58 92 -90 128
-56 61 -119 164 -101 164 5 0 103 -97 217 -216z"/>
<path d="M2570 4705 c-7 -8 -25 -15 -40 -15 -33 0 -73 -44 -65 -70 4 -12 -53
-77 -195 -223 -175 -179 -204 -206 -230 -205 -40 1 -70 -27 -70 -65 0 -17 -6
-38 -14 -46 -13 -14 -10 -26 25 -96 21 -44 47 -92 56 -107 20 -31 11 -48 -17
-31 -14 10 -21 9 -30 -2 -7 -8 -18 -15 -24 -15 -6 0 -101 93 -210 206 l-199
206 -61 -7 c-51 -6 -67 -13 -96 -41 -20 -19 -39 -34 -43 -34 -4 0 -22 15 -40
33 l-33 32 -32 -31 c-18 -17 -32 -36 -32 -43 0 -6 -5 -11 -12 -11 -6 0 -26
-15 -43 -34 l-32 -35 35 -35 35 -35 -31 -35 c-20 -23 -34 -54 -42 -92 l-12
-57 211 -211 c211 -211 212 -212 191 -231 -19 -17 -19 -19 -4 -36 28 -32 -9
-35 -48 -5 -19 14 -64 39 -101 57 -63 29 -69 30 -86 15 -10 -9 -30 -16 -44
-16 -35 0 -67 -33 -67 -67 0 -40 -385 -430 -424 -430 -37 0 -66 -30 -66 -66 0
-17 -7 -38 -16 -48 -14 -16 -13 -21 9 -66 14 -26 41 -72 61 -102 21 -31 34
-61 31 -70 -7 -23 56 -84 78 -75 9 3 34 -7 61 -25 25 -17 66 -40 93 -52 l47
-20 325 325 324 324 -17 46 c-9 24 -35 73 -57 107 -42 65 -47 100 -9 77 16
-11 23 -10 37 5 17 16 21 14 83 -47 l65 -64 58 12 c37 8 67 22 85 39 16 15 31
27 34 27 3 0 20 -14 38 -30 l32 -30 -35 -39 c-26 -29 -37 -51 -42 -91 l-7 -52
56 -57 c60 -60 65 -71 41 -91 -11 -9 -13 -16 -5 -24 13 -13 13 -36 0 -36 -6 0
-34 16 -64 35 -29 20 -76 44 -103 55 -45 17 -53 17 -63 5 -7 -8 -25 -15 -39
-15 -39 0 -63 -21 -70 -63 -5 -30 -33 -63 -156 -189 -83 -84 -199 -203 -258
-264 l-108 -112 35 -69 c19 -39 47 -85 62 -102 22 -27 25 -36 16 -51 -9 -14
-4 -24 30 -56 26 -25 42 -34 45 -26 7 18 20 15 57 -13 17 -13 58 -36 90 -51
l58 -27 326 326 326 326 -29 62 c-17 34 -45 83 -62 108 -22 30 -29 49 -23 55
7 7 17 7 29 -1 15 -10 22 -9 31 2 7 8 18 15 25 15 22 0 135 -131 135 -156 0
-54 39 -94 93 -94 15 0 49 -26 97 -75 73 -74 74 -74 55 -95 -16 -17 -17 -23
-6 -30 8 -4 11 -15 7 -25 -6 -16 -8 -16 -29 -1 -49 36 -124 77 -159 88 -30 9
-41 8 -53 -2 -9 -8 -27 -14 -40 -15 -34 -1 -65 -33 -65 -66 0 -23 -35 -64
-197 -229 -174 -177 -200 -200 -228 -200 -39 0 -68 -29 -67 -67 0 -15 -7 -36
-15 -45 -13 -14 -12 -22 5 -61 11 -25 39 -73 62 -107 30 -45 39 -64 31 -74
-15 -18 64 -95 80 -79 8 8 27 1 71 -27 33 -22 75 -44 95 -51 l36 -11 325 325
326 326 -38 75 c-20 42 -49 89 -63 106 -20 24 -23 34 -14 43 9 9 16 9 30 0 14
-9 22 -8 35 5 15 15 20 12 74 -41 l57 -57 54 7 c43 5 63 14 93 41 l39 35 35
-34 c32 -32 34 -38 24 -65 -17 -42 -15 -152 4 -204 l15 -45 -31 -32 -32 -33
27 -28 27 -29 -20 -18 c-20 -18 -21 -18 -85 45 -65 64 -80 69 -80 24 0 -35
-1043 -1078 -1062 -1062 -10 8 -17 8 -26 -1 -8 -8 5 -28 57 -80 65 -66 67 -70
47 -80 -11 -7 -21 -18 -21 -26 0 -22 28 -18 35 5 3 11 10 20 15 20 5 0 36 -29
71 -65 49 -51 65 -63 76 -54 10 9 10 15 2 25 -9 11 45 72 269 301 527 540 769
776 787 769 43 -16 31 12 -29 73 l-67 68 20 24 20 24 28 -27 27 -28 32 31 32
31 47 -18 c51 -19 127 -24 191 -11 l40 8 17 -93 17 -93 272 -271 273 -272 70
-7 c60 -6 73 -11 100 -39 l30 -31 105 106 c63 63 97 104 85 102 -28 -6 -44 25
-61 120 -13 76 -17 84 -64 132 -27 28 -50 55 -50 61 0 5 42 51 93 102 71 70
99 92 119 92 34 0 54 31 38 60 -20 38 -80 19 -80 -24 0 -13 -38 -59 -97 -118
l-98 -98 -207 207 -207 207 -86 17 c-48 10 -89 20 -92 22 -2 3 1 25 7 48 14
51 7 131 -16 190 -16 40 -16 40 10 68 26 28 26 28 6 46 -24 22 -25 38 -4 55
13 11 24 4 79 -50 45 -45 68 -61 80 -56 14 5 15 9 5 21 -16 19 -13 22 589 627
367 370 457 456 468 446 10 -8 17 -8 25 0 8 8 -5 28 -50 74 -61 63 -75 88 -48
88 22 0 30 19 11 26 -10 4 -22 -1 -30 -12 -13 -18 -18 -15 -77 44 -70 68 -94
79 -83 35 6 -25 -32 -64 -521 -554 -417 -417 -531 -526 -541 -517 -10 8 -17 8
-24 1 -7 -7 11 -32 56 -79 65 -68 65 -68 45 -88 -20 -20 -20 -20 -48 7 l-28
27 -27 -28 -28 -29 -52 18 c-64 22 -128 24 -193 4 -48 -14 -49 -14 -76 12 -16
15 -28 31 -28 37 0 6 15 26 34 46 24 25 36 50 44 89 l10 55 -61 63 c-59 61
-60 63 -42 83 14 16 15 22 5 35 -25 30 17 28 62 -3 53 -36 143 -82 161 -82 7
0 156 146 331 325 l318 325 -12 35 c-6 19 -30 62 -52 96 -30 45 -38 63 -29 72
15 15 -57 91 -74 77 -8 -7 -38 7 -94 44 -87 58 -128 73 -144 57 -6 -6 -25 -11
-42 -11 -40 0 -75 -36 -75 -76 0 -25 -30 -59 -198 -227 -171 -171 -201 -197
-228 -197 -38 0 -64 -27 -64 -65 0 -16 -7 -36 -16 -46 -15 -17 -14 -23 15 -86
18 -37 43 -82 57 -101 16 -20 23 -40 20 -49 -6 -15 -8 -15 -23 0 -16 16 -18
15 -38 -3 l-21 -19 -204 204 c-201 201 -204 204 -186 224 16 17 17 23 6 37
-11 13 -11 17 0 24 8 5 33 -5 70 -31 32 -22 80 -48 107 -60 l50 -20 319 321
c175 177 320 325 322 330 5 14 -45 119 -74 158 -21 27 -24 36 -13 48 10 13 7
21 -24 51 -29 30 -38 34 -51 24 -12 -10 -23 -6 -62 24 -26 20 -74 50 -107 66
l-59 30 -260 -265 c-234 -240 -263 -266 -292 -266 -40 0 -66 -26 -66 -65 0
-16 -7 -36 -15 -45 -14 -16 -14 -23 9 -73 14 -31 38 -76 55 -101 17 -25 31
-49 31 -55 0 -14 -23 -14 -36 -1 -8 8 -15 6 -24 -5 -20 -24 -32 -19 -90 40
l-55 56 -55 -7 c-44 -5 -62 -13 -90 -40 -20 -19 -40 -34 -46 -34 -6 0 -23 14
-39 30 l-29 30 36 38 c26 27 38 51 46 92 l11 55 -67 67 c-65 66 -65 68 -47 87
14 16 15 24 6 34 -9 11 -8 17 3 26 12 10 23 6 58 -21 24 -18 71 -46 103 -61
l60 -28 325 326 c179 179 324 331 322 338 -9 32 -57 121 -79 147 -21 25 -23
33 -12 46 10 12 7 21 -21 49 -23 24 -40 33 -52 29 -12 -3 -43 11 -87 40 -58
39 -129 76 -144 76 -3 0 -10 -7 -17 -15z m210 -200 l185 -185 -315 -315 -315
-315 -182 186 c-101 103 -183 189 -183 192 0 8 613 622 620 622 3 0 88 -83
190 -185z m-240 172 c0 -2 -13 -16 -30 -32 -22 -21 -30 -25 -30 -13 0 20 27
48 46 48 8 0 14 -1 14 -3z m163 -30 c81 -53 152 -122 203 -198 25 -39 44 -73
41 -75 -3 -3 -72 62 -154 146 -81 83 -150 153 -152 156 -14 14 18 -1 62 -29z
m180 -119 c-3 -6 -20 5 -39 23 -18 18 -31 36 -27 41 3 6 20 -5 39 -23 18 -18
31 -36 27 -41z m-689 -1003 c-3 -22 -8 -42 -11 -45 -3 -3 -167 159 -364 359
-198 200 -356 368 -352 372 4 4 22 9 38 11 28 4 56 -22 363 -327 l333 -330 -7
-40z m-392 308 c203 -203 368 -372 368 -378 0 -5 -58 -68 -129 -138 l-128
-129 -366 369 c-201 202 -366 372 -367 376 -1 8 239 264 250 266 3 1 170 -164
372 -366z m-482 332 c13 -14 20 -28 17 -32 -8 -7 -57 35 -57 49 0 15 16 8 40
-17z m720 8 c0 -10 -42 -53 -52 -53 -13 0 -9 22 9 42 16 18 43 25 43 11z
m-740 -28 c18 -19 21 -28 12 -37 -9 -9 -18 -6 -39 13 l-28 24 24 -27 24 -28
-27 -26 -26 -27 -25 23 c-32 30 -32 35 8 75 39 41 47 42 77 10z m2020 -180
l185 -185 -315 -315 -315 -315 -182 183 c-101 100 -183 186 -183 192 0 9 610
625 620 625 3 0 88 -83 190 -185z m-7 86 c72 -56 199 -221 170 -221 -11 0
-303 293 -303 303 0 12 62 -27 133 -82z m-2086 -37 c-10 -10 -68 47 -60 59 3
5 19 -5 36 -22 17 -17 28 -34 24 -37z m2196 -26 c-3 -6 -20 5 -39 23 -18 18
-31 36 -27 41 3 6 20 -5 39 -23 18 -18 31 -36 27 -41z m-1285 -120 c83 -84
149 -154 147 -156 -9 -10 -135 77 -186 128 -60 59 -137 180 -116 180 2 0 71
-68 155 -152z m-614 -312 c197 -201 357 -368 357 -373 0 -4 -19 -11 -42 -15
l-43 -8 -329 329 -329 329 7 51 c4 28 10 51 14 51 4 0 168 -164 365 -364z
m576 182 c0 -5 -7 -11 -16 -15 -12 -4 -30 9 -61 41 -36 39 -42 50 -32 62 10
13 20 8 61 -33 26 -26 48 -51 48 -55z m-11 78 c28 -30 10 -45 -19 -16 -21 21
-26 40 -12 40 5 0 19 -11 31 -24z m491 -183 c0 -10 -42 -53 -52 -53 -13 0 -9
22 9 42 16 18 43 25 43 11z m1270 -199 l184 -185 -315 -315 -314 -314 -182
182 c-101 101 -183 187 -183 193 0 10 610 625 620 625 3 0 89 -84 190 -186z
m-273 139 c-14 -15 -29 -24 -33 -21 -3 4 6 19 21 33 14 15 29 24 33 21 3 -4
-6 -19 -21 -33z m218 -19 c65 -43 161 -143 199 -208 15 -26 26 -49 24 -51 -2
-3 -73 66 -158 152 -155 155 -166 175 -65 107z m132 -56 c23 -21 31 -48 15
-48 -10 0 -62 53 -62 63 0 14 24 6 47 -15z m-1107 -326 c-18 -6 -147 87 -198
143 -49 53 -102 136 -102 159 0 6 70 -59 155 -144 85 -85 151 -156 145 -158z
m1902 251 c21 -20 38 -42 38 -48 0 -5 -233 -246 -518 -534 l-519 -523 -47 47
-46 48 57 61 c137 145 979 986 988 986 5 0 26 -17 47 -37z m-3232 -218 l185
-185 -315 -314 -314 -315 -188 187 -188 187 264 265 c145 146 283 286 306 313
23 26 48 47 54 47 6 0 94 -83 196 -185z m-250 168 c0 -10 -42 -53 -52 -53 -14
0 -9 19 12 40 20 20 40 26 40 13z m186 -32 c32 -21 80 -60 105 -87 51 -54 122
-159 117 -175 -2 -5 -73 61 -158 146 -85 85 -148 155 -139 155 9 0 42 -17 75
-39z m177 -9 c42 -43 46 -50 32 -62 -13 -11 -22 -6 -60 36 -40 43 -52 74 -27
74 4 0 29 -22 55 -48z m1092 -264 c600 -606 565 -568 558 -610 -3 -21 -9 -38
-12 -38 -4 0 -219 212 -478 472 -313 313 -468 475 -460 480 7 4 28 8 47 8 33
0 55 -20 345 -312z m-548 270 c13 -12 23 -28 23 -37 0 -10 -9 -6 -30 14 -29
28 -38 45 -23 45 4 0 17 -10 30 -22z m438 -290 c171 -172 387 -391 480 -486
l170 -172 -133 -132 -132 -133 -480 480 c-264 264 -480 484 -480 490 0 10 250
265 260 265 3 0 145 -141 315 -312z m2243 269 c23 -23 42 -47 42 -52 0 -12
-1032 -1045 -1044 -1045 -13 0 -86 71 -86 84 0 5 209 219 465 475 255 257 488
492 516 524 29 31 55 57 59 57 3 0 25 -19 48 -43z m-2704 -6 c27 -28 27 -30
11 -55 -21 -32 -31 -32 -64 -3 l-26 22 24 -28 c19 -21 22 -30 13 -39 -10 -10
-19 -6 -42 18 l-30 30 37 41 c21 23 41 42 44 42 3 1 18 -12 33 -28z m-560 -20
c27 -30 9 -47 -20 -20 -13 12 -24 26 -24 31 0 15 27 8 44 -11z m1065 -106
c-13 -13 -20 -10 -64 34 -42 44 -47 52 -35 66 12 15 19 11 64 -34 45 -45 49
-52 35 -66z m0 91 c15 -16 19 -26 11 -31 -13 -8 -50 22 -50 42 0 20 14 16 39
-11z m-589 -61 c35 -37 14 -44 -23 -7 -22 22 -27 32 -16 32 9 0 26 -11 39 -25z
m1070 -112 c0 -10 -42 -53 -52 -53 -13 0 -9 22 9 42 16 18 43 25 43 11z m-162
-988 c-3 -3 -27 -8 -54 -11 l-49 -6 -54 58 c-30 33 -226 232 -437 444 l-383
385 11 49 10 49 481 -481 c265 -265 479 -484 475 -487z m399 529 c-11 -11
-122 64 -179 123 -60 62 -118 147 -118 172 0 9 68 -53 152 -136 83 -84 149
-156 145 -159z m-2597 231 c0 -5 -50 -55 -55 -55 -11 0 -4 30 11 44 14 15 44
22 44 11z m1280 -211 l183 -185 -314 -315 -314 -314 -187 187 -188 188 312
312 c172 172 315 313 318 313 4 0 89 -84 190 -186z m-250 169 c0 -10 -42 -53
-52 -53 -14 0 -9 19 12 40 20 20 40 26 40 13z m185 -34 c36 -22 86 -65 112
-94 49 -55 119 -162 111 -170 -2 -2 -73 65 -158 150 -85 85 -149 155 -142 155
7 0 42 -18 77 -41z m173 -4 c27 -28 42 -51 38 -60 -8 -23 -18 -19 -65 29 -29
29 -42 50 -38 60 9 24 18 20 65 -29z m-36 -42 c18 -16 25 -43 11 -43 -10 0
-53 42 -53 52 0 13 22 9 42 -9z m1050 0 c18 -16 25 -43 10 -43 -14 0 -53 46
-45 53 9 10 14 9 35 -10z m-29 -41 c39 -40 45 -51 34 -60 -10 -9 -24 -1 -61
37 -27 27 -45 54 -42 60 11 18 19 14 69 -37z m-2132 -300 c-18 -6 -115 65
-172 124 -56 59 -129 160 -129 179 0 5 70 -60 155 -145 85 -85 151 -156 146
-158z m1438 86 c2 -14 -32 -8 -51 9 -10 9 -18 25 -18 36 0 17 3 16 34 -10 19
-15 35 -31 35 -35z m-1614 12 c16 -16 25 -33 22 -37 -8 -7 -67 45 -67 59 0 16
17 8 45 -22z m1742 -379 l183 -186 -315 -315 -314 -314 -185 190 -185 189 312
313 c171 171 314 311 317 310 3 0 87 -85 187 -187z m-275 136 c-20 -20 -32
-26 -32 -17 0 20 11 34 35 48 33 17 31 4 -3 -31z m221 -7 c42 -28 93 -72 115
-98 43 -51 106 -152 99 -159 -3 -3 -223 214 -306 303 -2 2 1 4 6 4 6 0 45 -23
86 -50z m165 -3 c42 -43 53 -67 29 -67 -17 0 -109 94 -101 103 15 14 31 6 72
-36z m537 13 c17 -18 23 -30 15 -30 -15 0 -60 39 -60 52 0 16 17 8 45 -22z
m-29 -16 c27 -28 31 -44 11 -44 -19 0 -60 47 -52 59 9 16 15 14 41 -15z m300
-5 c60 -16 132 -75 168 -139 28 -50 31 -63 31 -145 0 -103 -12 -133 -79 -203
-54 -58 -107 -84 -181 -90 -88 -7 -161 17 -223 73 -71 64 -96 120 -96 220 -1
95 20 150 80 208 86 85 176 107 300 76z m172 -22 c42 -43 42 -43 22 -62 -19
-17 -21 -17 -64 21 -47 42 -53 53 -34 72 19 19 31 14 76 -31z m-499 -1 c37
-39 8 -63 -33 -29 -15 13 -14 10 3 -10 36 -40 14 -57 -23 -18 -27 28 -27 30
-11 55 21 32 35 33 64 2z m-522 -8 c13 -12 23 -25 23 -30 0 -14 -19 -9 -40 12
-38 38 -22 55 17 18z m-1087 -351 c0 -14 -96 46 -154 96 -51 44 -156 185 -156
210 0 13 309 -293 310 -306z m1550 288 c13 -14 20 -28 17 -32 -8 -7 -57 35
-57 49 0 15 16 8 40 -17z m-1735 -185 c16 -16 25 -33 22 -37 -8 -7 -67 45 -67
59 0 16 17 8 45 -22z m2447 -161 l40 -10 -26 -25 c-15 -15 -30 -23 -37 -18 -8
5 -9 3 -5 -5 5 -8 -15 -35 -53 -73 -54 -55 -62 -59 -78 -47 -17 13 -17 12 -4
-4 13 -16 10 -23 -36 -68 l-50 -49 -17 82 c-9 47 -12 84 -7 86 5 2 31 23 57
47 27 24 53 41 58 38 5 -4 6 -1 2 5 -4 6 1 23 10 38 16 24 22 26 62 20 25 -3
63 -11 84 -17z m-1982 -6 c0 -10 -42 -53 -52 -53 -13 0 -9 22 9 42 16 18 43
25 43 11z m1362 -125 l-22 -22 -45 44 -45 44 22 23 22 24 45 -46 46 -45 -23
-22z m934 -144 c162 -162 254 -261 250 -270 -3 -7 -12 -11 -21 -8 -10 4 -14 2
-10 -7 5 -13 -242 -269 -260 -269 -14 0 -505 498 -505 512 0 7 59 71 131 143
105 104 132 126 141 115 8 -12 9 -11 4 3 -6 18 0 37 10 37 3 0 120 -115 260
-256z m-1134 135 c21 -23 38 -45 38 -49 0 -3 -234 -243 -520 -531 l-519 -524
-48 47 -48 48 136 137 c622 630 905 913 914 913 5 0 27 -19 47 -41z m-1057
-188 c83 -85 142 -151 132 -148 -71 25 -199 142 -262 241 -67 105 -53 95 130
-93z m1165 74 l44 -45 -485 -486 c-266 -267 -502 -503 -524 -525 l-40 -38 -42
41 c-24 23 -43 47 -43 52 0 10 1030 1046 1040 1046 3 0 26 -20 50 -45z m-1208
-112 c30 -29 35 -43 16 -43 -16 0 -58 41 -58 57 0 19 11 16 42 -14z m2517
-250 c6 -31 11 -65 11 -76 0 -20 -155 -177 -174 -177 -22 0 -129 20 -134 24
-2 3 37 47 87 98 l92 93 21 -25 20 -25 -16 28 c-17 28 -17 28 26 72 24 24 46
44 49 44 3 1 11 -25 18 -56z"/>
<path d="M2557 4602 c-20 -22 -22 -42 -4 -42 17 0 59 44 50 53 -11 12 -29 8
-46 -11z"/>
<path d="M2585 4310 l-39 -40 32 -32 32 -33 42 42 42 43 -29 30 c-16 16 -31
30 -35 30 -3 0 -24 -18 -45 -40z m75 5 l24 -26 -37 -37 -37 -37 -27 28 -27 27
34 35 c19 19 37 35 40 35 4 0 17 -11 30 -25z"/>
<path d="M2699 4243 c-13 -16 -12 -17 4 -4 16 13 21 21 13 21 -2 0 -10 -8 -17
-17z"/>
<path d="M2392 4037 c-12 -13 -22 -29 -22 -35 0 -20 25 -14 49 11 18 20 19 26
8 35 -11 9 -19 7 -35 -11z"/>
<path d="M2270 3915 c-18 -20 -21 -28 -12 -37 10 -10 18 -6 38 14 15 14 23 31
20 37 -11 17 -20 14 -46 -14z"/>
<path d="M2415 3890 c-3 -5 -1 -10 4 -10 6 0 11 5 11 10 0 6 -2 10 -4 10 -3 0
-8 -4 -11 -10z"/>
<path d="M1520 4040 c0 -5 5 -10 11 -10 5 0 7 5 4 10 -3 6 -8 10 -11 10 -2 0
-4 -4 -4 -10z"/>
<path d="M1402 3847 l-42 -43 30 -29 30 -29 43 42 42 42 -30 30 -31 30 -42
-43z m56 -54 l-37 -37 -26 24 -25 24 37 38 37 38 25 -25 26 -25 -37 -37z"/>
<path d="M1650 3546 c0 -7 7 -19 15 -26 12 -10 16 -9 21 3 3 9 3 21 -1 27 -9
15 -35 12 -35 -4z"/>
<path d="M1696 3501 c-3 -4 3 -16 13 -25 21 -19 37 -7 27 19 -6 16 -32 20 -40
6z"/>
<path d="M1747 3454 c-9 -10 12 -34 30 -34 19 0 12 34 -8 38 -8 1 -18 0 -22
-4z"/>
<path d="M1796 3401 c-8 -12 21 -34 33 -27 6 4 8 13 4 21 -6 17 -29 20 -37 6z"/>
<path d="M1846 3351 c-8 -12 21 -34 34 -26 8 5 8 11 -1 21 -13 16 -25 18 -33
5z"/>
<path d="M1890 3295 c0 -18 24 -30 40 -20 8 5 8 11 -1 21 -15 19 -39 18 -39
-1z"/>
<path d="M1220 4096 c0 -2 8 -10 18 -17 15 -13 16 -12 3 4 -13 16 -21 21 -21
13z"/>
<path d="M3011 3916 c-34 -36 -16 -54 20 -20 15 15 26 31 23 36 -8 13 -19 9
-43 -16z"/>
<path d="M2915 3820 c-25 -26 -26 -30 -11 -36 29 -11 74 44 48 60 -5 3 -22 -8
-37 -24z"/>
<path d="M3329 3793 c-13 -16 -12 -17 4 -4 16 13 21 21 13 21 -2 0 -10 -8 -17
-17z"/>
<path d="M2820 3725 c-18 -20 -21 -28 -12 -37 10 -10 18 -6 38 14 15 14 23 31
20 37 -11 17 -20 14 -46 -14z"/>
<path d="M2755 3380 l-39 -40 30 -30 30 -30 34 37 c30 32 31 34 4 10 -36 -32
-45 -33 -69 -7 -18 20 -18 22 18 58 l37 36 32 -29 c27 -25 29 -26 13 -5 -21
26 -36 40 -45 40 -3 0 -24 -18 -45 -40z"/>
<path d="M3631 3526 c-34 -36 -16 -54 20 -20 15 15 26 31 23 36 -8 13 -19 9
-43 -16z"/>
<path d="M3659 3243 c-29 -30 -30 -33 -7 -17 15 10 28 22 28 27 0 12 23 8 42
-10 10 -9 18 -12 18 -7 0 8 -35 44 -43 44 -2 0 -19 -16 -38 -37z"/>
<path d="M3810 3219 c0 -5 5 -7 10 -4 6 3 10 8 10 11 0 2 -4 4 -10 4 -5 0 -10
-5 -10 -11z"/>
<path d="M3720 3185 c-41 -42 -52 -43 -79 -8 -12 14 -23 24 -26 21 -3 -2 10
-19 28 -36 l33 -32 44 45 c24 25 42 45 39 45 -3 0 -20 -16 -39 -35z"/>
<path d="M3450 2955 c-19 -20 -22 -27 -12 -37 10 -10 18 -7 38 14 15 14 23 31
20 37 -10 16 -18 13 -46 -14z"/>
<path d="M3341 2840 c-15 -13 -21 -26 -17 -37 6 -14 11 -12 36 12 16 15 27 32
24 37 -8 12 -16 10 -43 -12z"/>
<path d="M1452 3087 c-22 -24 -29 -47 -14 -47 12 0 52 44 52 58 0 18 -14 14
-38 -11z"/>
<path d="M1331 2966 c-34 -36 -16 -54 20 -20 15 15 26 31 23 36 -8 13 -19 9
-43 -16z"/>
<path d="M1319 2853 l-24 -28 28 24 c25 23 32 31 24 31 -2 0 -14 -12 -28 -27z"/>
<path d="M835 2840 c10 -11 20 -20 23 -20 3 0 -3 9 -13 20 -10 11 -20 20 -23
20 -3 0 3 -9 13 -20z"/>
<path d="M766 2791 c-19 -20 -24 -31 -16 -36 17 -10 68 41 54 55 -7 7 -19 1
-38 -19z"/>
<path d="M1057 2772 c-20 -21 -37 -42 -37 -48 0 -13 43 -54 56 -54 6 0 27 18
49 40 l39 40 -29 30 c-16 16 -31 30 -35 30 -3 0 -23 -17 -43 -38z m73 3 l24
-26 -37 -37 c-30 -30 -40 -35 -54 -26 -38 24 -39 42 -3 79 19 19 37 35 40 35
4 0 17 -11 30 -25z"/>
<path d="M2244 3135 c-4 -10 5 -28 25 -49 23 -24 30 -38 25 -52 -6 -16 -3 -16
19 5 28 25 27 31 -7 69 -32 36 -55 46 -62 27z m76 -69 c0 -5 -16 5 -35 24 -19
19 -35 38 -35 44 0 5 16 -5 35 -24 19 -19 35 -38 35 -44z"/>
<path d="M2455 3054 c77 -83 -39 -210 -135 -148 -22 14 -22 12 3 -10 21 -20
39 -26 72 -26 93 0 140 107 79 179 -14 17 -30 31 -34 31 -5 0 2 -12 15 -26z"/>
<path d="M2355 3031 c6 -21 5 -23 -14 -18 -11 3 -23 2 -26 -3 -2 -4 9 -10 26
-14 22 -4 33 -14 41 -36 6 -17 13 -29 15 -26 6 6 -27 97 -40 111 -6 6 -7 1 -2
-14z"/>
<path d="M2400 2982 c0 -6 9 -12 20 -15 11 -3 20 -3 20 -1 0 2 -9 8 -20 14
-11 6 -20 7 -20 2z"/>
<path d="M2487 2870 c-16 -19 -16 -20 1 -20 28 0 74 -53 65 -76 -6 -17 -5 -17
10 -5 19 15 19 15 -42 84 -38 42 -12 32 39 -15 l45 -43 -45 48 c-24 26 -47 47
-50 47 -3 0 -13 -9 -23 -20z"/>
<path d="M2570 2750 c0 -7 15 -9 40 -7 l40 4 1 -46 c1 -41 2 -42 8 -16 12 50
-1 70 -48 73 -25 2 -41 -1 -41 -8z"/>
<path d="M2610 2715 c0 -8 5 -15 10 -15 6 0 10 7 10 15 0 8 -4 15 -10 15 -5 0
-10 -7 -10 -15z"/>
<path d="M2691 2666 c-25 -27 -24 -28 42 -46 26 -7 47 -15 47 -18 0 -3 -7 -14
-17 -24 -9 -10 -12 -18 -6 -18 14 0 48 39 40 46 -3 4 -29 14 -58 23 -49 16
-51 18 -34 35 10 9 15 19 13 21 -3 3 -15 -6 -27 -19z"/>
<path d="M2792 2568 c-19 -19 -15 -31 22 -72 30 -32 38 -36 55 -27 20 11 37
31 26 31 -3 0 -14 -6 -25 -12 -17 -11 -24 -9 -52 19 -31 32 -31 33 -13 53 19
21 8 29 -13 8z"/>
<path d="M2870 2444 c0 -13 63 -74 76 -74 6 0 19 9 29 20 10 11 13 20 8 20 -6
0 -16 -7 -23 -15 -12 -14 -18 -11 -52 22 -21 20 -38 33 -38 27z"/>
<path d="M4020 2526 c0 -2 8 -10 18 -17 15 -13 16 -12 3 4 -13 16 -21 21 -21
13z"/>
<path d="M2092 3290 c7 -11 17 -20 22 -20 5 0 1 9 -9 20 -10 11 -20 20 -22 20
-2 0 2 -9 9 -20z"/>
<path d="M1977 2602 c-20 -21 -37 -42 -37 -48 0 -13 43 -54 56 -54 11 0 84 72
84 83 0 3 -18 -13 -40 -36 -32 -35 -42 -40 -56 -31 -40 24 -41 42 -2 81 l37
37 23 -20 23 -19 -19 23 c-11 12 -22 22 -26 22 -3 0 -23 -17 -43 -38z"/>
<path d="M1636 2531 c-19 -20 -24 -31 -16 -36 17 -10 68 41 54 55 -7 7 -19 1
-38 -19z"/>
<path d="M1541 2436 c-34 -36 -16 -54 20 -20 15 15 26 31 23 36 -8 13 -19 9
-43 -16z"/>
<path d="M1446 2341 c-19 -20 -24 -31 -16 -36 17 -10 68 41 54 55 -7 7 -19 1
-38 -19z"/>
<path d="M2320 2086 c0 -2 8 -10 18 -17 15 -13 16 -12 3 4 -13 16 -21 21 -21
13z"/>
<path d="M2516 2011 c-19 -20 -24 -31 -16 -36 17 -10 68 41 54 55 -7 7 -19 1
-38 -19z"/>
<path d="M2400 1895 c-18 -20 -21 -28 -12 -37 10 -10 18 -6 38 14 15 14 23 31
20 37 -11 17 -20 14 -46 -14z"/>
<path d="M2429 1823 l-24 -28 28 24 c25 23 32 31 24 31 -2 0 -14 -12 -28 -27z"/>
<path d="M1831 1716 c-16 -16 -19 -26 -11 -31 13 -8 62 34 54 46 -8 14 -19 10
-43 -15z"/>
<path d="M2122 1697 l-42 -43 33 -32 33 -32 42 43 42 43 -33 32 -33 32 -42
-43z m70 6 c25 -22 23 -32 -14 -70 l-32 -33 -23 22 c-29 27 -29 36 4 70 31 32
40 34 65 11z"/>
<path d="M3210 2137 c0 -2 15 -16 33 -33 l32 -29 -29 33 c-28 30 -36 37 -36
29z"/>
<path d="M3361 2021 c-16 -4 -28 -17 -33 -36 -6 -24 -3 -34 16 -54 55 -55 128
19 74 76 -12 13 -24 23 -27 22 -3 -1 -17 -4 -30 -8z"/>
<path d="M3460 1880 c0 -5 5 -10 10 -10 6 0 10 5 10 10 0 6 -4 10 -10 10 -5 0
-10 -4 -10 -10z"/>
<path d="M3490 1857 c0 -2 15 -16 33 -33 l32 -29 -29 33 c-28 30 -36 37 -36
29z"/>
<path d="M3675 1745 c11 -9 29 -21 40 -26 l20 -10 -20 16 c-11 9 -29 21 -40
26 l-20 10 20 -16z"/>
<path d="M3650 1696 c0 -2 8 -10 18 -17 15 -13 16 -12 3 4 -13 16 -21 21 -21
13z"/>
<path d="M3610 1670 c6 -11 13 -20 16 -20 2 0 0 9 -6 20 -6 11 -13 20 -16 20
-2 0 0 -9 6 -20z"/>
<path d="M3890 1702 c0 -12 19 -26 26 -19 2 2 -2 10 -11 17 -9 8 -15 8 -15 2z"/>
<path d="M3955 1630 c3 -5 11 -10 16 -10 6 0 7 5 4 10 -3 6 -11 10 -16 10 -6
0 -7 -4 -4 -10z"/>
<path d="M3825 1620 c3 -5 8 -10 11 -10 2 0 4 5 4 10 0 6 -5 10 -11 10 -5 0
-7 -4 -4 -10z"/>
<path d="M3784 1578 l-29 -33 33 29 c30 28 37 36 29 36 -2 0 -16 -15 -33 -32z"/>
<path d="M4020 1565 c7 -9 15 -13 17 -11 7 7 -7 26 -19 26 -6 0 -6 -6 2 -15z"/>
<path d="M3900 1550 c0 -5 5 -10 11 -10 5 0 7 5 4 10 -3 6 -8 10 -11 10 -2 0
-4 -4 -4 -10z"/>
<path d="M3730 1530 c0 -5 5 -10 11 -10 5 0 7 5 4 10 -3 6 -8 10 -11 10 -2 0
-4 -4 -4 -10z"/>
<path d="M4080 1511 c0 -5 5 -13 10 -16 6 -3 10 -2 10 4 0 5 -4 13 -10 16 -5
3 -10 2 -10 -4z"/>
<path d="M3844 1488 l-19 -23 23 19 c21 18 27 26 19 26 -2 0 -12 -10 -23 -22z"/>
<path d="M3610 1496 c0 -2 7 -9 15 -16 9 -7 15 -8 15 -2 0 5 -7 12 -15 16 -8
3 -15 4 -15 2z"/>
<path d="M3805 1450 c3 -5 8 -10 11 -10 2 0 4 5 4 10 0 6 -5 10 -11 10 -5 0
-7 -4 -4 -10z"/>
<path d="M4150 1435 c7 -9 15 -13 17 -11 7 7 -7 26 -19 26 -6 0 -6 -6 2 -15z"/>
<path d="M3681 1423 c7 -12 15 -20 18 -17 3 2 -3 12 -13 22 -17 16 -18 16 -5
-5z"/>
<path d="M4055 1390 c3 -5 8 -10 11 -10 2 0 4 5 4 10 0 6 -5 10 -11 10 -5 0
-7 -4 -4 -10z"/>
<path d="M4210 1375 c7 -9 15 -13 17 -11 7 7 -7 26 -19 26 -6 0 -6 -6 2 -15z"/>
<path d="M3746 1355 c4 -8 11 -15 16 -15 6 0 5 6 -2 15 -7 8 -14 15 -16 15 -2
0 -1 -7 2 -15z"/>
<path d="M4009 1343 l-24 -28 28 24 c25 23 32 31 24 31 -2 0 -14 -12 -28 -27z"/>
<path d="M3910 1346 c0 -2 8 -10 18 -17 15 -13 16 -12 3 4 -13 16 -21 21 -21
13z"/>
<path d="M4270 1315 c7 -9 15 -13 17 -11 7 7 -7 26 -19 26 -6 0 -6 -6 2 -15z"/>
<path d="M3800 1301 c0 -5 7 -12 16 -15 14 -5 15 -4 4 9 -14 17 -20 19 -20 6z"/>
<path d="M4084 1268 l-29 -33 33 29 c30 28 37 36 29 36 -2 0 -16 -15 -33 -32z"/>
<path d="M3861 1237 c2 -1 13 -9 24 -17 19 -14 19 -14 6 3 -7 9 -18 17 -24 17
-6 0 -8 -1 -6 -3z"/>
<path d="M4035 1220 c3 -5 8 -10 11 -10 2 0 4 5 4 10 0 6 -5 10 -11 10 -5 0
-7 -4 -4 -10z"/>
<path d="M4169 1203 c-13 -16 -12 -17 4 -4 9 7 17 15 17 17 0 8 -8 3 -21 -13z"/>
<path d="M3930 1176 c0 -2 8 -10 18 -17 15 -13 16 -12 3 4 -13 16 -21 21 -21
13z"/>
<path d="M4145 1110 c10 -11 20 -20 23 -20 3 0 -3 9 -13 20 -10 11 -20 20 -23
20 -3 0 3 -9 13 -20z"/>
<path d="M3990 1111 c0 -5 7 -12 16 -15 14 -5 15 -4 4 9 -14 17 -20 19 -20 6z"/>
<path d="M4060 1040 c6 -11 16 -20 22 -20 6 0 3 9 -7 20 -10 11 -20 20 -22 20
-2 0 1 -9 7 -20z"/>
<path d="M4330 1080 c6 -11 13 -20 16 -20 2 0 0 9 -6 20 -6 11 -13 20 -16 20
-2 0 0 -9 6 -20z"/>
<path d="M4240 1037 c0 -3 12 -12 26 -22 15 -9 23 -12 20 -6 -7 11 -46 35 -46
28z"/>
<path d="M865 4700 c3 -5 11 -10 16 -10 6 0 7 5 4 10 -3 6 -11 10 -16 10 -6 0
-7 -4 -4 -10z"/>
<path d="M916 4675 c-3 -9 -16 -20 -28 -25 -16 -6 -18 -9 -6 -9 18 -1 48 24
48 40 0 14 -7 11 -14 -6z"/>
<path d="M980 4591 c0 -5 7 -12 16 -15 24 -9 27 -7 10 9 -17 17 -26 19 -26 6z"/>
<path d="M1293 4347 c-18 -21 -21 -57 -4 -57 4 0 19 12 34 28 25 26 26 28 8
39 -15 10 -22 8 -38 -10z"/>
<path d="M4610 1125 c-7 -8 -21 -15 -31 -15 -11 0 -19 -6 -19 -13 0 -17 -294
-309 -303 -301 -4 4 -7 -2 -7 -12 0 -11 -5 -25 -12 -32 -14 -14 -6 -25 13 -16
29 15 391 392 381 398 -5 3 -15 -1 -22 -9z"/>
<path d="M4457 903 c-109 -109 -193 -199 -186 -202 6 -2 25 13 43 33 35 41 46
45 46 17 0 -29 46 -79 80 -86 38 -8 94 18 109 51 26 59 2 125 -54 145 -19 7
-35 16 -35 19 0 10 89 94 95 89 2 -3 0 -19 -7 -35 -9 -24 -8 -37 6 -66 38 -79
142 -83 182 -6 46 88 -59 186 -142 132 -44 -29 -36 -8 15 39 53 50 67 67 54
67 -4 0 -97 -89 -206 -197z"/>
<path d="M4835 890 c10 -11 20 -20 23 -20 3 0 -3 9 -13 20 -10 11 -20 20 -23
20 -3 0 3 -9 13 -20z"/>
<path d="M4777 852 c-24 -27 -21 -59 8 -78 23 -15 27 -15 50 0 32 21 33 59 3
80 -29 21 -41 20 -61 -2z"/>
<path d="M4633 754 c-36 -18 -59 -64 -54 -111 2 -22 62 -73 87 -73 33 0 81 25
94 49 27 52 1 122 -52 140 -38 14 -36 14 -75 -5z"/>
<path d="M4837 730 c-70 -55 -28 -180 60 -180 68 0 103 36 103 105 0 79 -99
125 -163 75z"/>
<path d="M4905 465 c-105 -108 -192 -201 -194 -208 -2 -7 87 78 198 188 111
110 201 203 201 207 0 20 -29 -6 -205 -187z"/>
<path d="M4470 621 c-15 -28 -12 -46 8 -64 37 -34 82 -15 82 33 0 14 -5 31
-12 38 -19 19 -66 15 -78 -7z"/>
<path d="M4940 435 c-107 -107 -196 -200 -198 -205 -2 -5 8 -20 23 -34 l26
-24 61 59 c34 33 64 56 68 52 3 -5 14 -35 24 -68 22 -75 50 -131 87 -176 l28
-34 145 145 c136 135 144 145 129 162 -23 26 -107 78 -133 83 -13 2 -43 12
-69 21 -25 9 -52 18 -60 20 -10 3 7 27 52 72 l67 68 -28 27 -28 27 -194 -195z
m380 -135 c0 -4 -18 -27 -40 -50 l-40 -42 -56 47 c-39 34 -52 51 -45 58 8 8
19 4 38 -14 16 -13 37 -31 49 -39 11 -8 0 4 -25 26 l-45 42 29 25 29 24 53
-35 c29 -19 53 -38 53 -42z m-135 -55 l50 -44 -53 -52 -54 -53 -33 40 c-19 21
-34 42 -35 47 0 4 -5 7 -11 7 -6 0 8 -23 31 -50 l42 -51 -31 -30 -32 -30 -19
23 c-10 13 -28 39 -39 59 l-20 35 34 38 c18 21 38 37 43 35 5 -2 26 -24 46
-47 20 -24 36 -41 36 -37 0 4 -16 25 -35 48 -19 22 -35 45 -35 50 0 13 43 57
55 56 6 0 32 -20 60 -44z"/>
<path d="M5215 315 c30 -26 65 -49 65 -42 0 2 -21 18 -47 36 -36 25 -41 26
-18 6z"/>
<path d="M5254 321 c7 -11 46 -35 46 -28 0 3 -12 12 -26 22 -15 9 -23 12 -20
6z"/>
<path d="M5140 215 c19 -19 36 -35 39 -35 3 0 -10 16 -29 35 -19 19 -36 35
-39 35 -3 0 10 -16 29 -35z"/>
<path d="M5047 120 c15 -22 32 -40 36 -40 5 0 -6 18 -23 40 -41 52 -50 52 -13
0z"/>
<path d="M5030 100 c12 -16 24 -30 26 -30 3 0 -4 14 -16 30 -12 17 -24 30 -26
30 -3 0 4 -13 16 -30z"/>
<path d="M4701 551 c-30 -8 -59 -46 -67 -86 -8 -41 30 -96 74 -109 75 -21 146
55 122 130 -18 52 -75 81 -129 65z"/>
</g>
</svg>
